<mxfile host="app.diagrams.net" modified="2023-09-27T14:23:31.053Z" agent="Mozilla/5.0 (Windows NT 10.0; Win64; x64) AppleWebKit/537.36 (KHTML, like Gecko) Chrome/117.0.0.0 Safari/537.36" etag="AEkHtLdk_YxfvV5r7GOB" version="21.8.2" type="device">
  <diagram name="Page-1" id="2YBvvXClWsGukQMizWep">
    <mxGraphModel dx="1434" dy="790" grid="1" gridSize="10" guides="1" tooltips="1" connect="1" arrows="1" fold="1" page="1" pageScale="1" pageWidth="850" pageHeight="1100" math="0" shadow="0">
      <root>
        <mxCell id="0" />
        <mxCell id="1" parent="0" />
        <mxCell id="aM9ryv3xv72pqoxQDRHE-1" value="Graph_Redactor" style="shape=umlLifeline;perimeter=lifelinePerimeter;whiteSpace=wrap;html=1;container=0;dropTarget=0;collapsible=0;recursiveResize=0;outlineConnect=0;portConstraint=eastwest;newEdgeStyle={&quot;edgeStyle&quot;:&quot;elbowEdgeStyle&quot;,&quot;elbow&quot;:&quot;vertical&quot;,&quot;curved&quot;:0,&quot;rounded&quot;:0};" parent="1" vertex="1">
          <mxGeometry x="250" y="100" width="100" height="870" as="geometry" />
        </mxCell>
        <mxCell id="aM9ryv3xv72pqoxQDRHE-5" value="Holst_Class" style="shape=umlLifeline;perimeter=lifelinePerimeter;whiteSpace=wrap;html=1;container=0;dropTarget=0;collapsible=0;recursiveResize=0;outlineConnect=0;portConstraint=eastwest;newEdgeStyle={&quot;edgeStyle&quot;:&quot;elbowEdgeStyle&quot;,&quot;elbow&quot;:&quot;vertical&quot;,&quot;curved&quot;:0,&quot;rounded&quot;:0};" parent="1" vertex="1">
          <mxGeometry x="440" y="160" width="100" height="810" as="geometry" />
        </mxCell>
        <mxCell id="38EyoLRpENG-E7wULdpG-4" value="Main_Menu" style="shape=umlLifeline;perimeter=lifelinePerimeter;whiteSpace=wrap;html=1;container=0;dropTarget=0;collapsible=0;recursiveResize=0;outlineConnect=0;portConstraint=eastwest;newEdgeStyle={&quot;edgeStyle&quot;:&quot;elbowEdgeStyle&quot;,&quot;elbow&quot;:&quot;vertical&quot;,&quot;curved&quot;:0,&quot;rounded&quot;:0};" parent="1" vertex="1">
          <mxGeometry x="550" y="210" width="100" height="820" as="geometry" />
        </mxCell>
        <mxCell id="38EyoLRpENG-E7wULdpG-5" value="Options_Menu" style="shape=umlLifeline;perimeter=lifelinePerimeter;whiteSpace=wrap;html=1;container=0;dropTarget=0;collapsible=0;recursiveResize=0;outlineConnect=0;portConstraint=eastwest;newEdgeStyle={&quot;edgeStyle&quot;:&quot;elbowEdgeStyle&quot;,&quot;elbow&quot;:&quot;vertical&quot;,&quot;curved&quot;:0,&quot;rounded&quot;:0};" parent="1" vertex="1">
          <mxGeometry x="660" y="270" width="100" height="40" as="geometry" />
        </mxCell>
        <mxCell id="38EyoLRpENG-E7wULdpG-6" value="Figure_Menu" style="shape=umlLifeline;perimeter=lifelinePerimeter;whiteSpace=wrap;html=1;container=0;dropTarget=0;collapsible=0;recursiveResize=0;outlineConnect=0;portConstraint=eastwest;newEdgeStyle={&quot;edgeStyle&quot;:&quot;elbowEdgeStyle&quot;,&quot;elbow&quot;:&quot;vertical&quot;,&quot;curved&quot;:0,&quot;rounded&quot;:0};" parent="1" vertex="1">
          <mxGeometry x="780" y="320" width="100" height="670" as="geometry" />
        </mxCell>
        <mxCell id="38EyoLRpENG-E7wULdpG-7" value="Holst" style="shape=umlLifeline;perimeter=lifelinePerimeter;whiteSpace=wrap;html=1;container=0;dropTarget=0;collapsible=0;recursiveResize=0;outlineConnect=0;portConstraint=eastwest;newEdgeStyle={&quot;edgeStyle&quot;:&quot;elbowEdgeStyle&quot;,&quot;elbow&quot;:&quot;vertical&quot;,&quot;curved&quot;:0,&quot;rounded&quot;:0};" parent="1" vertex="1">
          <mxGeometry x="880" y="400" width="100" height="620" as="geometry" />
        </mxCell>
        <mxCell id="38EyoLRpENG-E7wULdpG-8" value="Figure" style="shape=umlLifeline;perimeter=lifelinePerimeter;whiteSpace=wrap;html=1;container=0;dropTarget=0;collapsible=0;recursiveResize=0;outlineConnect=0;portConstraint=eastwest;newEdgeStyle={&quot;edgeStyle&quot;:&quot;elbowEdgeStyle&quot;,&quot;elbow&quot;:&quot;vertical&quot;,&quot;curved&quot;:0,&quot;rounded&quot;:0};" parent="1" vertex="1">
          <mxGeometry x="1040" y="470" width="100" height="470" as="geometry" />
        </mxCell>
        <mxCell id="38EyoLRpENG-E7wULdpG-37" value="" style="shape=umlDestroy;whiteSpace=wrap;html=1;strokeWidth=3;targetShapes=umlLifeline;" parent="38EyoLRpENG-E7wULdpG-8" vertex="1">
          <mxGeometry x="35" y="450" width="30" height="30" as="geometry" />
        </mxCell>
        <mxCell id="38EyoLRpENG-E7wULdpG-15" value="" style="shape=umlLifeline;perimeter=lifelinePerimeter;whiteSpace=wrap;html=1;container=1;dropTarget=0;collapsible=0;recursiveResize=0;outlineConnect=0;portConstraint=eastwest;newEdgeStyle={&quot;curved&quot;:0,&quot;rounded&quot;:0};participant=umlActor;" parent="1" vertex="1">
          <mxGeometry x="100" y="60" width="25" height="910" as="geometry" />
        </mxCell>
        <mxCell id="38EyoLRpENG-E7wULdpG-16" value="Open Redactor" style="html=1;verticalAlign=bottom;endArrow=block;curved=0;rounded=0;" parent="1" edge="1">
          <mxGeometry width="80" relative="1" as="geometry">
            <mxPoint x="109.81034482758605" y="120" as="sourcePoint" />
            <mxPoint x="249.5" y="120" as="targetPoint" />
          </mxGeometry>
        </mxCell>
        <mxCell id="38EyoLRpENG-E7wULdpG-18" value="Create Menu" style="html=1;verticalAlign=bottom;endArrow=block;curved=0;rounded=0;" parent="1" edge="1">
          <mxGeometry width="80" relative="1" as="geometry">
            <mxPoint x="300.00034482758605" y="180" as="sourcePoint" />
            <mxPoint x="439.69" y="180" as="targetPoint" />
          </mxGeometry>
        </mxCell>
        <mxCell id="38EyoLRpENG-E7wULdpG-19" value="Create Menu" style="html=1;verticalAlign=bottom;endArrow=block;curved=0;rounded=0;" parent="1" edge="1">
          <mxGeometry width="80" relative="1" as="geometry">
            <mxPoint x="300.00034482758605" y="229.47" as="sourcePoint" />
            <mxPoint x="549.69" y="229.47" as="targetPoint" />
          </mxGeometry>
        </mxCell>
        <mxCell id="38EyoLRpENG-E7wULdpG-20" value="Create Menu" style="html=1;verticalAlign=bottom;endArrow=block;curved=0;rounded=0;" parent="1" edge="1">
          <mxGeometry width="80" relative="1" as="geometry">
            <mxPoint x="300.31034482758605" y="290" as="sourcePoint" />
            <mxPoint x="660" y="290" as="targetPoint" />
          </mxGeometry>
        </mxCell>
        <mxCell id="38EyoLRpENG-E7wULdpG-21" value="Create Menu" style="html=1;verticalAlign=bottom;endArrow=block;curved=0;rounded=0;" parent="1" edge="1">
          <mxGeometry width="80" relative="1" as="geometry">
            <mxPoint x="300.31034482758605" y="340" as="sourcePoint" />
            <mxPoint x="780" y="340" as="targetPoint" />
          </mxGeometry>
        </mxCell>
        <mxCell id="38EyoLRpENG-E7wULdpG-22" value="Create_Holst()" style="html=1;verticalAlign=bottom;endArrow=block;curved=0;rounded=0;" parent="1" edge="1">
          <mxGeometry width="80" relative="1" as="geometry">
            <mxPoint x="490" y="420" as="sourcePoint" />
            <mxPoint x="880" y="420" as="targetPoint" />
          </mxGeometry>
        </mxCell>
        <mxCell id="38EyoLRpENG-E7wULdpG-23" value="place_figure()" style="html=1;verticalAlign=bottom;endArrow=block;curved=0;rounded=0;" parent="1" edge="1">
          <mxGeometry width="80" relative="1" as="geometry">
            <mxPoint x="600" y="479.58000000000004" as="sourcePoint" />
            <mxPoint x="930" y="480" as="targetPoint" />
          </mxGeometry>
        </mxCell>
        <mxCell id="38EyoLRpENG-E7wULdpG-24" value="add_object()" style="html=1;verticalAlign=bottom;endArrow=block;curved=0;rounded=0;" parent="1" edge="1">
          <mxGeometry width="80" relative="1" as="geometry">
            <mxPoint x="930" y="490" as="sourcePoint" />
            <mxPoint x="1040" y="490" as="targetPoint" />
          </mxGeometry>
        </mxCell>
        <mxCell id="38EyoLRpENG-E7wULdpG-26" value="Save file" style="html=1;verticalAlign=bottom;endArrow=block;curved=0;rounded=0;" parent="1" edge="1">
          <mxGeometry width="80" relative="1" as="geometry">
            <mxPoint x="110" y="970" as="sourcePoint" />
            <mxPoint x="599.5" y="970" as="targetPoint" />
          </mxGeometry>
        </mxCell>
        <mxCell id="38EyoLRpENG-E7wULdpG-27" value="save()" style="html=1;verticalAlign=bottom;endArrow=block;curved=0;rounded=0;" parent="1" edge="1">
          <mxGeometry width="80" relative="1" as="geometry">
            <mxPoint x="600" y="990" as="sourcePoint" />
            <mxPoint x="929.4999999999995" y="990" as="targetPoint" />
          </mxGeometry>
        </mxCell>
        <mxCell id="38EyoLRpENG-E7wULdpG-31" value="render_Holst()" style="html=1;verticalAlign=bottom;endArrow=block;curved=0;rounded=0;" parent="1" target="38EyoLRpENG-E7wULdpG-7" edge="1">
          <mxGeometry x="0.5512" y="-20" width="80" relative="1" as="geometry">
            <mxPoint x="930" y="530" as="sourcePoint" />
            <mxPoint x="1000" y="570" as="targetPoint" />
            <Array as="points">
              <mxPoint x="1000" y="530" />
              <mxPoint x="1000" y="570" />
            </Array>
            <mxPoint as="offset" />
          </mxGeometry>
        </mxCell>
        <mxCell id="38EyoLRpENG-E7wULdpG-33" value="delete_object()" style="html=1;verticalAlign=bottom;endArrow=block;curved=0;rounded=0;entryX=0.526;entryY=0.499;entryDx=0;entryDy=0;entryPerimeter=0;" parent="1" edge="1">
          <mxGeometry width="80" relative="1" as="geometry">
            <mxPoint x="930" y="880" as="sourcePoint" />
            <mxPoint x="1080.0000000000002" y="880" as="targetPoint" />
            <Array as="points">
              <mxPoint x="1039.22" y="880.03" />
            </Array>
          </mxGeometry>
        </mxCell>
        <mxCell id="38EyoLRpENG-E7wULdpG-34" value="delete()" style="html=1;verticalAlign=bottom;endArrow=block;curved=0;rounded=0;" parent="1" edge="1">
          <mxGeometry width="80" relative="1" as="geometry">
            <mxPoint x="830" y="920" as="sourcePoint" />
            <mxPoint x="929.4999999999995" y="920" as="targetPoint" />
          </mxGeometry>
        </mxCell>
        <mxCell id="38EyoLRpENG-E7wULdpG-35" value="get_object()" style="html=1;verticalAlign=bottom;endArrow=block;curved=0;rounded=0;" parent="1" edge="1">
          <mxGeometry width="80" relative="1" as="geometry">
            <mxPoint x="929.4999999999995" y="639.5799999999998" as="sourcePoint" />
            <mxPoint x="829.3235294117644" y="639.5799999999998" as="targetPoint" />
          </mxGeometry>
        </mxCell>
        <mxCell id="_8Uw5CFxiMQHdm2J3RAh-7" value="change_Size()" style="html=1;verticalAlign=bottom;endArrow=block;curved=0;rounded=0;" parent="1" edge="1">
          <mxGeometry width="80" relative="1" as="geometry">
            <mxPoint x="830.0038095238097" y="699.9999999999998" as="sourcePoint" />
            <mxPoint x="930" y="700" as="targetPoint" />
          </mxGeometry>
        </mxCell>
        <mxCell id="_8Uw5CFxiMQHdm2J3RAh-9" value="change_Rotation()" style="html=1;verticalAlign=bottom;endArrow=block;curved=0;rounded=0;" parent="1" edge="1">
          <mxGeometry width="80" relative="1" as="geometry">
            <mxPoint x="830.0038095238097" y="729.9999999999998" as="sourcePoint" />
            <mxPoint x="930" y="730" as="targetPoint" />
          </mxGeometry>
        </mxCell>
        <mxCell id="_8Uw5CFxiMQHdm2J3RAh-10" value="fill()" style="html=1;verticalAlign=bottom;endArrow=block;curved=0;rounded=0;" parent="1" edge="1">
          <mxGeometry width="80" relative="1" as="geometry">
            <mxPoint x="830.0038095238097" y="759.9999999999998" as="sourcePoint" />
            <mxPoint x="930" y="760" as="targetPoint" />
          </mxGeometry>
        </mxCell>
        <mxCell id="_8Uw5CFxiMQHdm2J3RAh-11" value="change_fill_color()" style="html=1;verticalAlign=bottom;endArrow=block;curved=0;rounded=0;" parent="1" edge="1">
          <mxGeometry width="80" relative="1" as="geometry">
            <mxPoint x="830.0038095238097" y="789.9999999999998" as="sourcePoint" />
            <mxPoint x="930" y="790" as="targetPoint" />
          </mxGeometry>
        </mxCell>
        <mxCell id="_8Uw5CFxiMQHdm2J3RAh-12" value="change_line_color()" style="html=1;verticalAlign=bottom;endArrow=block;curved=0;rounded=0;" parent="1" edge="1">
          <mxGeometry width="80" relative="1" as="geometry">
            <mxPoint x="830.0038095238097" y="819.9999999999998" as="sourcePoint" />
            <mxPoint x="930" y="820" as="targetPoint" />
          </mxGeometry>
        </mxCell>
        <mxCell id="_8Uw5CFxiMQHdm2J3RAh-13" value="change_position()" style="html=1;verticalAlign=bottom;endArrow=block;curved=0;rounded=0;" parent="1" edge="1">
          <mxGeometry width="80" relative="1" as="geometry">
            <mxPoint x="830.0038095238097" y="849.9999999999998" as="sourcePoint" />
            <mxPoint x="930" y="850" as="targetPoint" />
          </mxGeometry>
        </mxCell>
        <mxCell id="_8Uw5CFxiMQHdm2J3RAh-14" value="set_Size()" style="html=1;verticalAlign=bottom;endArrow=block;curved=0;rounded=0;entryX=0;entryY=0;entryDx=0;entryDy=0;" parent="1" target="_8Uw5CFxiMQHdm2J3RAh-27" edge="1">
          <mxGeometry width="80" relative="1" as="geometry">
            <mxPoint x="930.0038095238097" y="709.9999999999998" as="sourcePoint" />
            <mxPoint x="1030" y="710" as="targetPoint" />
          </mxGeometry>
        </mxCell>
        <mxCell id="_8Uw5CFxiMQHdm2J3RAh-16" value="fill()" style="html=1;verticalAlign=bottom;endArrow=block;curved=0;rounded=0;entryX=0;entryY=0;entryDx=0;entryDy=0;" parent="1" edge="1">
          <mxGeometry width="80" relative="1" as="geometry">
            <mxPoint x="930.0038095238097" y="749.9999999999998" as="sourcePoint" />
            <mxPoint x="1080" y="750" as="targetPoint" />
            <Array as="points">
              <mxPoint x="1050" y="750" />
            </Array>
          </mxGeometry>
        </mxCell>
        <mxCell id="_8Uw5CFxiMQHdm2J3RAh-17" value="set_fill_color()" style="html=1;verticalAlign=bottom;endArrow=block;curved=0;rounded=0;entryX=0;entryY=0;entryDx=0;entryDy=0;" parent="1" edge="1">
          <mxGeometry width="80" relative="1" as="geometry">
            <mxPoint x="930.0038095238097" y="779.9999999999998" as="sourcePoint" />
            <mxPoint x="1080" y="780" as="targetPoint" />
          </mxGeometry>
        </mxCell>
        <mxCell id="_8Uw5CFxiMQHdm2J3RAh-18" value="set_line_color()" style="html=1;verticalAlign=bottom;endArrow=block;curved=0;rounded=0;entryX=0;entryY=0;entryDx=0;entryDy=0;" parent="1" edge="1">
          <mxGeometry width="80" relative="1" as="geometry">
            <mxPoint x="930.0038095238097" y="809.9999999999998" as="sourcePoint" />
            <mxPoint x="1080" y="810" as="targetPoint" />
          </mxGeometry>
        </mxCell>
        <mxCell id="_8Uw5CFxiMQHdm2J3RAh-19" value="set_position()" style="html=1;verticalAlign=bottom;endArrow=block;curved=0;rounded=0;entryX=0;entryY=0;entryDx=0;entryDy=0;" parent="1" edge="1">
          <mxGeometry width="80" relative="1" as="geometry">
            <mxPoint x="930.0038095238097" y="839.9999999999998" as="sourcePoint" />
            <mxPoint x="1080" y="840" as="targetPoint" />
          </mxGeometry>
        </mxCell>
        <mxCell id="_8Uw5CFxiMQHdm2J3RAh-20" value="" style="shape=umlDestroy;whiteSpace=wrap;html=1;strokeWidth=3;targetShapes=umlLifeline;" parent="1" vertex="1">
          <mxGeometry x="915" y="1010" width="30" height="30" as="geometry" />
        </mxCell>
        <mxCell id="_8Uw5CFxiMQHdm2J3RAh-23" value="" style="shape=umlDestroy;whiteSpace=wrap;html=1;strokeWidth=3;targetShapes=umlLifeline;" parent="1" vertex="1">
          <mxGeometry x="585" y="1010" width="30" height="30" as="geometry" />
        </mxCell>
        <mxCell id="_8Uw5CFxiMQHdm2J3RAh-27" value="" style="rounded=0;whiteSpace=wrap;html=1;" parent="1" vertex="1">
          <mxGeometry x="1080" y="710" width="20" height="20" as="geometry" />
        </mxCell>
        <mxCell id="_8Uw5CFxiMQHdm2J3RAh-28" value="" style="rounded=0;whiteSpace=wrap;html=1;" parent="1" vertex="1">
          <mxGeometry x="1080" y="750" width="20" height="20" as="geometry" />
        </mxCell>
        <mxCell id="_8Uw5CFxiMQHdm2J3RAh-29" value="" style="rounded=0;whiteSpace=wrap;html=1;" parent="1" vertex="1">
          <mxGeometry x="1080" y="780" width="20" height="20" as="geometry" />
        </mxCell>
        <mxCell id="_8Uw5CFxiMQHdm2J3RAh-30" value="" style="rounded=0;whiteSpace=wrap;html=1;" parent="1" vertex="1">
          <mxGeometry x="1080" y="810" width="20" height="20" as="geometry" />
        </mxCell>
        <mxCell id="_8Uw5CFxiMQHdm2J3RAh-31" value="" style="rounded=0;whiteSpace=wrap;html=1;" parent="1" vertex="1">
          <mxGeometry x="1080" y="840" width="20" height="20" as="geometry" />
        </mxCell>
        <mxCell id="_8Uw5CFxiMQHdm2J3RAh-32" value="" style="rounded=0;whiteSpace=wrap;html=1;" parent="1" vertex="1">
          <mxGeometry x="1080" y="880" width="20" height="20" as="geometry" />
        </mxCell>
        <mxCell id="_8Uw5CFxiMQHdm2J3RAh-33" value="" style="rounded=0;whiteSpace=wrap;html=1;" parent="1" vertex="1">
          <mxGeometry x="105" y="120" width="20" height="850" as="geometry" />
        </mxCell>
        <mxCell id="_8Uw5CFxiMQHdm2J3RAh-34" value="" style="rounded=0;whiteSpace=wrap;html=1;" parent="1" vertex="1">
          <mxGeometry x="290" y="140" width="20" height="830" as="geometry" />
        </mxCell>
        <mxCell id="38EyoLRpENG-E7wULdpG-32" value="Delete figure" style="html=1;verticalAlign=bottom;endArrow=block;curved=0;rounded=0;" parent="1" edge="1">
          <mxGeometry width="80" relative="1" as="geometry">
            <mxPoint x="110" y="880" as="sourcePoint" />
            <mxPoint x="829.5" y="880" as="targetPoint" />
          </mxGeometry>
        </mxCell>
        <mxCell id="38EyoLRpENG-E7wULdpG-36" value="&amp;nbsp;Choose figure to change" style="html=1;verticalAlign=bottom;endArrow=block;curved=0;rounded=0;" parent="1" edge="1">
          <mxGeometry width="80" relative="1" as="geometry">
            <mxPoint x="110" y="610" as="sourcePoint" />
            <mxPoint x="829.5" y="610" as="targetPoint" />
          </mxGeometry>
        </mxCell>
      </root>
    </mxGraphModel>
  </diagram>
</mxfile>
